HIERARCHY
ROOT Hips
{
	OFFSET -0.001795 -0.223333 0.028219
	CHANNELS 6 Xposition Yposition Zposition Zrotation Yrotation Xrotation
	JOINT LeftUpLeg
	{
		OFFSET 0.069520 -0.091406 -0.006815
		CHANNELS 3 Zrotation Yrotation Xrotation
		JOINT LeftLeg
		{
			OFFSET 0.034277 -0.375199 -0.004496
			CHANNELS 3 Zrotation Yrotation Xrotation
			JOINT LeftFoot
			{
				OFFSET -0.013596 -0.397961 -0.043693
				CHANNELS 3 Zrotation Yrotation Xrotation
				JOINT LeftToe
				{
					OFFSET 0.026358 -0.055791 0.119288
					CHANNELS 3 Zrotation Yrotation Xrotation
					End Site
					{
						OFFSET 0.000000 0.000000 0.000000
					}
				}
			}
		}
	}
	JOINT RightUpLeg
	{
		OFFSET -0.067670 -0.090522 -0.004320
		CHANNELS 3 Zrotation Yrotation Xrotation
		JOINT RightLeg
		{
			OFFSET -0.038290 -0.382569 -0.008850
			CHANNELS 3 Zrotation Yrotation Xrotation
			JOINT RightFoot
			{
				OFFSET 0.015774 -0.398415 -0.042312
				CHANNELS 3 Zrotation Yrotation Xrotation
				JOINT RightToe
				{
					OFFSET -0.025372 -0.048144 0.123348
					CHANNELS 3 Zrotation Yrotation Xrotation
					End Site
					{
						OFFSET 0.000000 0.000000 0.000000
					}
				}
			}
		}
	}
	JOINT Spine
	{
		OFFSET -0.002533 0.108963 -0.026696
		CHANNELS 3 Zrotation Yrotation Xrotation
		JOINT Spine1
		{
			OFFSET 0.005487 0.135180 0.001092
			CHANNELS 3 Zrotation Yrotation Xrotation
			JOINT Spine2
			{
				OFFSET 0.001457 0.052922 0.025425
				CHANNELS 3 Zrotation Yrotation Xrotation
				JOINT Neck
				{
					OFFSET -0.002778 0.213870 -0.042857
					CHANNELS 3 Zrotation Yrotation Xrotation
					JOINT Head
					{
						OFFSET 0.005152 0.064970 0.051349
						CHANNELS 3 Zrotation Yrotation Xrotation
						End Site
						{
							OFFSET 0.000000 0.000000 0.000000
						}
					}
				}
				JOINT LeftShoulder
				{
					OFFSET 0.078845 0.121749 -0.034090
					CHANNELS 3 Zrotation Yrotation Xrotation
					JOINT LeftArm
					{
						OFFSET 0.090977 0.030469 -0.008868
						CHANNELS 3 Zrotation Yrotation Xrotation
						JOINT LeftForeArm
						{
							OFFSET 0.259612 -0.012772 -0.027456
							CHANNELS 3 Zrotation Yrotation Xrotation
							JOINT LeftHand
							{
								OFFSET 0.249234 0.008986 -0.001171
								CHANNELS 3 Zrotation Yrotation Xrotation
								End Site
								{
									OFFSET 0.000000 0.000000 0.000000
								}
							}
						}
					}
				}
				JOINT RightShoulder
				{
					OFFSET -0.081759 0.118833 -0.038615
					CHANNELS 3 Zrotation Yrotation Xrotation
					JOINT RightArm
					{
						OFFSET -0.096012 0.032551 -0.009143
						CHANNELS 3 Zrotation Yrotation Xrotation
						JOINT RightForeArm
						{
							OFFSET -0.253742 -0.013329 -0.021401
							CHANNELS 3 Zrotation Yrotation Xrotation
							JOINT RightHand
							{
								OFFSET -0.255298 0.007772 -0.005559
								CHANNELS 3 Zrotation Yrotation Xrotation
								End Site
								{
									OFFSET 0.000000 0.000000 0.000000
								}
							}
						}
					}
				}
			}
		}
	}
}
MOTION
Frames: 11
Frame Time: 0.050000
0.000000 0.745984 0.000000 -4.121345 18.532297 -4.459328 -2.933839 0.674756 7.356535 -0.875492 -3.895829 37.055402 14.324747 22.624121 -56.149378 0.000000 0.000000 0.000000 1.164523 0.700596 -55.220009 2.551167 -2.142695 40.926584 -15.173496 -35.213956 -7.495532 0.000000 0.000000 0.000000 -4.047245 -2.403951 34.501169 14.572442 -2.349552 -27.468529 -6.735856 -14.652663 19.434940 -4.854782 3.557561 -27.134851 0.000000 0.000000 0.000000 -16.114234 -13.270101 6.739107 -19.427593 -47.775031 2.818041 66.845083 -60.316436 -36.973792 0.000000 0.000000 0.000000 19.428853 7.568792 1.737504 51.474978 -8.182512 -9.830485 8.862191 43.829623 4.946568 0.000000 0.000000 0.000000
0.034659 0.733965 0.109908 -4.081665 21.058252 -1.099392 -0.443818 0.567212 14.717172 -0.720560 -2.817302 29.509355 15.374349 18.736978 -51.230375 0.000000 0.000000 0.000000 1.907431 -0.081532 -59.937749 2.271505 -1.418652 34.008007 -7.731825 -16.248498 16.192382 0.000000 0.000000 0.000000 -2.485853 -2.960433 33.577013 11.629388 -0.630678 -40.038476 -8.393809 -24.342422 28.473344 -7.413644 3.513197 -27.937138 0.000000 0.000000 0.000000 -15.789902 -7.840919 6.126270 -19.774315 -52.956559 3.105875 74.802347 -55.036590 -34.900078 0.000000 0.000000 0.000000 15.027574 3.632798 -1.531124 51.561198 -14.500798 -13.186331 9.901591 41.787810 4.129095 0.000000 0.000000 0.000000
0.072654 0.731255 0.233037 -5.535034 19.952947 2.398060 0.657610 0.332289 21.150382 1.673194 -2.257344 22.031771 12.273433 11.376781 -29.398117 0.000000 0.000000 0.000000 3.799120 1.169921 -64.707770 2.539144 -1.750932 41.754368 -4.196321 -11.005386 12.282447 0.000000 0.000000 0.000000 1.787551 -2.617091 24.685571 12.049330 -0.581548 -41.040486 -13.737825 -22.144534 31.435072 -8.461078 4.439713 -29.790201 0.000000 0.000000 0.000000 -16.021359 -8.310270 6.044992 -17.517195 -49.261684 1.334602 85.394381 -61.744259 -48.893400 0.000000 0.000000 0.000000 15.007540 -0.838330 -3.228803 47.510614 -18.840070 -13.811685 11.162123 39.101508 4.485682 0.000000 0.000000 0.000000
0.110194 0.733268 0.360603 -6.288686 22.745430 2.030929 3.666296 -0.830986 23.427671 3.160782 -3.546850 26.526812 -5.811165 0.382231 17.132563 0.000000 0.000000 0.000000 2.652267 -0.484383 -63.196273 3.849539 -4.495120 54.650579 -5.234788 -11.813809 -2.571221 0.000000 0.000000 0.000000 4.710341 -3.167892 22.739151 11.031860 -0.643708 -39.688321 -14.612542 -23.024156 28.531330 -8.621446 4.969788 -23.822759 0.000000 0.000000 0.000000 -19.162374 -5.311387 4.569229 -19.786591 -44.819853 1.366031 101.552633 -76.452785 -78.157144 0.000000 0.000000 0.000000 12.790644 -4.271453 -4.373567 46.222964 -24.264787 -15.010235 12.439171 33.601409 4.135172 0.000000 0.000000 0.000000
0.146309 0.743762 0.477510 -8.052885 24.715750 -0.289614 8.953566 -1.922686 17.642187 0.433688 -6.255154 43.114378 -13.387565 -0.252447 37.049593 0.000000 0.000000 0.000000 2.886840 -0.516870 -58.279986 2.649890 -5.630607 60.190093 -5.978454 -13.334122 -3.697125 0.000000 0.000000 0.000000 3.381234 -3.113638 23.746641 11.050908 -0.687154 -36.262765 -11.309174 -25.012743 25.998907 -9.702397 5.752297 -20.708654 0.000000 0.000000 0.000000 -22.032158 -3.092599 3.718221 -19.259297 -38.763403 0.262272 136.101575 -82.164243 -120.517107 0.000000 0.000000 0.000000 14.666300 -4.158240 -4.840558 42.505559 -28.838178 -15.075177 12.572140 30.675304 3.725509 0.000000 0.000000 0.000000
0.179446 0.749910 0.579591 -8.892026 22.547231 -1.256950 12.920012 -1.387890 3.896521 -9.161953 -5.248473 66.457332 -9.233051 -0.637338 28.795867 0.000000 0.000000 0.000000 2.529701 0.594794 -52.245277 3.264022 -5.879440 57.228365 -7.314143 -17.380096 -12.043600 0.000000 0.000000 0.000000 0.328981 -2.420858 24.598216 13.222949 -1.226470 -33.204958 -7.943754 -18.101773 23.286887 -10.704847 7.891519 -14.769256 0.000000 0.000000 0.000000 -25.720894 -2.273193 1.520151 -19.767616 -28.974089 -0.449327 -152.563262 -81.981582 155.613118 0.000000 0.000000 0.000000 21.694502 -3.982831 -4.905219 37.444664 -29.041539 -12.882523 8.684122 30.316903 3.078051 0.000000 0.000000 0.000000
0.211838 0.757342 0.672367 -7.458302 23.078704 -1.254485 15.143880 -1.033723 -15.281975 -19.721492 2.038022 78.808891 5.217962 13.871197 13.975959 0.000000 0.000000 0.000000 0.365924 0.026672 -45.827786 2.914832 -6.751597 58.558386 -7.547534 -19.533832 -18.967292 0.000000 0.000000 0.000000 -2.752488 -2.286898 28.562133 13.058869 -1.113408 -33.453293 -7.094619 -13.488740 21.725211 -8.387639 7.160449 -7.914850 0.000000 0.000000 0.000000 -29.234052 -0.137518 -1.766712 -21.288691 -19.996331 -0.957758 -123.973111 -79.894894 119.933034 0.000000 0.000000 0.000000 26.774238 -3.680937 -4.119534 34.401475 -26.093543 -11.057520 6.477969 27.561108 2.458872 0.000000 0.000000 0.000000
0.246344 0.759068 0.759176 -7.051433 18.462218 -3.710162 18.864579 -0.607191 -30.621683 -25.202152 8.092450 60.715937 17.769504 55.201571 -29.126747 0.000000 0.000000 0.000000 3.659563 2.525503 -37.949580 -1.796602 -3.083824 63.120930 -7.072647 -18.335133 -24.432890 0.000000 0.000000 0.000000 -7.629805 -1.119554 32.039280 10.532300 -0.638174 -34.752125 -3.178617 -5.187864 25.191161 -4.680702 4.804682 -2.540585 0.000000 0.000000 0.000000 -33.078796 -2.391175 -2.568932 -19.440998 -11.248542 -1.744501 -99.224413 -81.211686 93.166644 0.000000 0.000000 0.000000 34.697761 -1.650508 -1.023421 28.993662 -20.263009 -8.775272 0.977404 30.319341 1.455504 0.000000 0.000000 0.000000
0.283782 0.756925 0.845653 -6.971443 14.347005 -4.855497 20.717421 0.259112 -41.294727 -21.634295 6.335472 44.781046 14.636117 35.676967 -19.517372 0.000000 0.000000 0.000000 4.864333 3.275974 -32.737848 -3.945345 -0.533439 68.913970 -6.751463 -15.506414 -21.893786 0.000000 0.000000 0.000000 -11.077439 0.137303 31.770949 9.629695 -0.559939 -33.777024 -2.118074 0.354551 27.552596 -4.954040 5.597440 0.830663 0.000000 0.000000 0.000000 -37.214747 -1.616262 -5.213849 -18.218280 -6.942882 -1.946360 -53.122390 -80.591390 47.985719 0.000000 0.000000 0.000000 37.667384 0.904541 2.702711 25.414095 -16.150562 -7.448516 -3.801629 34.707528 0.221982 0.000000 0.000000 0.000000
0.322716 0.741864 0.937071 -5.906716 13.540775 -6.868840 19.396313 0.050664 -44.340513 -21.776283 6.609578 44.091099 12.203303 26.279971 -8.562840 0.000000 0.000000 0.000000 2.003726 2.248592 -25.422897 -4.412283 -0.271902 74.365313 -5.878124 -11.110179 -19.450140 0.000000 0.000000 0.000000 -13.552044 0.741107 29.472777 5.030245 0.022265 -28.974521 0.953056 2.212523 26.070352 -5.076091 5.059577 8.891091 0.000000 0.000000 0.000000 -40.376195 -2.910506 -5.593664 -16.114684 -4.144817 -1.812648 -42.177492 -76.687795 35.824466 0.000000 0.000000 0.000000 35.651460 0.923699 2.947508 25.083772 -16.644189 -7.410265 -5.706845 44.215873 -0.445406 0.000000 0.000000 0.000000
0.361155 0.710622 1.031912 -6.132017 12.009445 -8.833990 17.476891 -0.182216 -43.424331 -21.618262 8.019668 55.798899 13.350109 33.912866 -25.976547 0.000000 0.000000 0.000000 1.611030 1.946513 -20.336971 -5.809920 1.685071 84.271447 -4.541906 -8.823205 -8.658256 0.000000 0.000000 0.000000 -16.010632 1.195135 26.548650 6.540941 -0.652329 -25.056480 -0.094930 3.916564 25.298014 -6.233821 6.574388 6.226369 0.000000 0.000000 0.000000 -41.061088 -4.062365 -5.431648 -16.358860 -1.958349 -1.906494 -31.270969 -74.834551 26.059156 0.000000 0.000000 0.000000 35.022723 1.620439 3.704022 23.398501 -17.033120 -6.892642 -11.829594 53.996185 -3.676196 0.000000 0.000000 0.000000
